<svg version="1.1" id="Layer_1" xmlns="http://www.w3.org/2000/svg" xmlns:xlink="http://www.w3.org/1999/xlink" x="0px" y="0px"
	 width="100%" viewBox="0 0 1024 784" enable-background="new 0 0 1024 784" xml:space="preserve">
<path fill="#FFFFFF" opacity="1.000000" stroke="none" 
	d="
M583.934998,375.960144 
	C603.704529,346.347290 624.387329,317.853760 646.222595,290.319122 
	C648.877747,291.577454 648.226868,293.470306 648.077209,294.977905 
	C645.562439,320.306488 643.681702,345.697906 640.499329,370.961090 
	C639.626038,377.893372 639.209351,384.883026 638.340149,391.815918 
	C637.732910,396.659180 640.645569,397.808990 644.434570,398.464081 
	C663.647400,401.785736 682.571716,406.402344 701.379028,411.478577 
	C736.873047,421.058655 771.289185,433.448334 803.244324,451.915649 
	C815.119263,458.778320 825.966003,467.079071 835.207642,477.326355 
	C836.748230,479.034576 836.754028,479.029358 837.748413,481.954529 
	C836.163147,483.650665 834.707214,482.302155 833.299927,481.669708 
	C802.499878,467.828064 770.178711,461.281830 736.464661,460.096466 
	C714.030762,459.307739 691.930786,460.657562 669.983765,465.189362 
	C621.549866,475.190369 580.292725,497.595490 548.685730,536.180298 
	C535.802979,551.907166 526.864807,569.993896 520.068970,589.122009 
	C519.476318,590.790161 518.252869,592.843079 520.001526,594.223755 
	C522.016174,595.814392 523.718323,593.814880 525.332458,592.795410 
	C542.369141,582.035339 559.058167,570.663330 577.182068,561.759521 
	C601.013794,550.051636 625.997803,541.445251 651.643372,534.601929 
	C665.144226,530.999329 678.776794,528.034851 692.511353,525.683594 
	C706.097290,523.357727 719.811279,521.276978 733.607117,521.051208 
	C743.895813,520.882751 754.142944,520.065735 764.494324,520.303711 
	C783.781128,520.747192 802.997498,521.433228 822.047546,524.438049 
	C859.755188,530.385742 895.952271,541.281006 930.209229,558.310852 
	C933.934021,560.162476 937.694275,561.943420 941.406006,563.820435 
	C943.687683,564.974304 943.910278,566.490662 942.434509,568.668152 
	C934.866577,579.835022 927.353271,591.039917 919.940186,602.309998 
	C918.060120,605.168213 916.248474,605.484497 913.357849,603.674500 
	C891.656555,590.085449 868.812744,578.823608 844.096008,571.934509 
	C821.472290,565.628906 798.594421,560.438416 774.989075,559.066833 
	C765.859009,558.536255 756.759644,557.462219 747.594910,557.273621 
	C718.658020,556.678467 690.125854,560.164734 661.705627,565.255127 
	C634.702454,570.091675 608.538330,577.760620 583.189514,588.104797 
	C552.429077,600.657227 524.499817,618.023315 498.874756,639.129883 
	C498.746124,639.235779 498.625519,639.351318 498.497711,639.458191 
	C490.751892,645.935974 490.948181,645.657349 482.675812,639.828735 
	C446.217346,614.141235 407.953979,591.556824 366.805481,574.172607 
	C335.919434,561.123962 304.324371,550.050659 271.245972,543.995056 
	C246.467392,539.458862 221.459000,536.624451 196.188446,538.284546 
	C144.690155,541.667542 98.255821,558.135071 58.620613,591.977417 
	C57.271954,593.128967 56.088459,594.681335 53.968712,594.519287 
	C52.401939,593.254089 52.814301,591.461609 52.804123,589.878540 
	C52.726982,577.879395 52.787117,565.879150 52.656940,553.880798 
	C52.622700,550.724792 53.678947,548.729980 56.448101,546.978882 
	C84.146141,529.463989 113.880753,516.624634 145.786865,509.359497 
	C174.187347,502.892609 202.929047,501.008270 232.105408,504.337311 
	C262.053314,507.754364 291.114624,514.455994 319.283173,524.902405 
	C352.773163,537.322327 384.556915,553.393860 415.537109,571.127136 
	C433.171021,581.220947 450.925781,591.098022 468.174896,601.850098 
	C469.798645,602.862183 471.675751,604.683105 473.605988,603.314270 
	C475.680084,601.843506 474.072296,599.497803 473.623474,597.755798 
	C468.444641,577.655945 460.858154,558.531921 449.988281,540.783508 
	C432.538269,512.290955 409.053833,489.976868 379.874969,473.931610 
	C352.568878,458.916229 323.152771,450.487396 292.115845,447.107117 
	C262.153748,443.843903 232.237686,444.833466 202.287750,446.401459 
	C195.483795,446.757660 188.714890,447.782928 181.929688,448.498474 
	C181.110580,448.584869 180.271286,448.724060 179.248093,447.204773 
	C184.455566,443.831665 189.510025,440.234802 194.859055,437.148529 
	C218.430466,423.548279 244.050156,415.337280 270.255524,408.623962 
	C286.388519,404.490997 302.782562,401.765961 319.218384,399.403412 
	C329.407379,397.938782 339.762939,397.445770 350.064636,396.998474 
	C363.705627,396.406158 377.343781,395.287628 391.010529,395.775513 
	C395.292969,395.928314 396.694061,394.458649 396.898132,390.076691 
	C398.377014,358.317627 400.136505,326.571594 401.827545,294.822540 
	C401.859772,294.218018 402.140411,293.626709 403.052429,292.744293 
	C426.786133,329.907501 445.635193,369.479584 462.467896,410.108826 
	C479.285675,450.701904 493.139893,492.211639 502.413940,535.747070 
	C520.982361,477.953644 550.655701,426.232880 583.934998,375.960144 
z"/>
<path fill="#FFFFFF" opacity="1.000000" stroke="none" 
	d="
M370.489502,148.424225 
	C377.780914,146.443756 384.646271,144.397125 391.616943,142.814728 
	C395.701050,141.887619 397.008209,139.885834 396.565826,135.788071 
	C393.760651,109.803955 391.120270,83.802147 389.611694,57.701473 
	C389.389221,53.851662 387.196136,50.238274 388.017181,45.666225 
	C391.544769,47.579231 392.216522,50.818954 393.182678,53.612854 
	C401.669434,78.155052 410.024109,102.742920 418.420685,127.316322 
	C418.636017,127.946556 418.894440,128.562012 419.113495,129.191055 
	C421.622894,136.396317 421.597076,136.201355 429.046814,135.255676 
	C435.313690,134.460144 441.640411,134.056534 447.953674,133.736588 
	C451.613434,133.551117 453.609833,132.606400 454.011139,128.341843 
	C455.494659,112.579208 455.724915,96.757225 456.630127,80.970398 
	C457.411530,67.342613 458.438721,53.743443 459.735291,40.159920 
	C459.826721,39.202045 459.742584,38.093254 461.447113,37.708931 
	C463.385498,41.375610 462.985138,45.565266 463.725189,49.486580 
	C468.351746,74.001472 472.946381,98.522408 477.532349,123.044937 
	C479.128693,131.580994 479.106812,131.510544 487.917603,131.866989 
	C495.069733,132.156342 502.287659,132.165527 509.334137,133.235626 
	C513.860413,133.923019 515.014038,132.119247 515.450378,128.499405 
	C516.564819,119.253380 517.678223,110.007133 518.755615,100.756752 
	C520.930054,82.087669 523.029663,63.408203 526.237610,44.879406 
	C526.474792,43.509396 526.212952,41.806675 527.778320,40.845047 
	C529.858948,41.477036 529.193542,43.248554 529.248840,44.591858 
	C530.449036,73.737793 535.435425,102.453018 538.995056,131.331604 
	C539.480957,135.273529 541.259277,136.545502 545.054810,136.959488 
	C551.158875,137.625275 557.255310,138.716446 563.218384,140.183258 
	C566.679688,141.034714 568.024719,139.959076 569.107788,136.902466 
	C577.894104,112.105995 586.764587,87.339264 595.655396,62.580025 
	C597.083130,58.604225 598.739563,54.710594 600.247620,50.887070 
	C602.543701,51.480312 602.218567,52.619499 602.015137,53.514400 
	C598.421265,69.328850 598.621277,85.585739 596.401733,101.568596 
	C594.572876,114.738060 593.665161,128.033142 592.142700,141.248764 
	C591.634827,145.657776 592.945251,147.747330 597.474609,148.981140 
	C605.975647,151.296829 614.311340,154.277756 622.589294,157.325394 
	C625.804626,158.509155 627.335449,158.180557 629.392212,155.099075 
	C645.946289,130.297195 662.777222,105.680092 679.524780,81.007339 
	C680.000122,80.307076 680.507812,79.647598 682.362671,79.960526 
	C680.587891,84.685371 678.841980,89.303497 677.117432,93.929619 
	C668.512634,117.012505 659.974976,140.120819 651.250061,163.158173 
	C649.837097,166.888962 650.490295,169.063690 654.154114,170.681305 
	C662.230957,174.247375 670.183472,178.096420 677.761353,182.641739 
	C681.353149,184.796188 682.576782,181.840683 684.100464,179.914337 
	C695.365723,165.672546 706.508423,151.333832 717.763062,137.083511 
	C723.338196,130.024414 729.064270,123.084343 734.734741,116.100739 
	C735.336304,115.359802 735.797363,114.336449 737.149963,114.598167 
	C738.176758,116.529053 736.878967,118.074455 736.157898,119.644600 
	C725.319092,143.246887 714.462952,166.841278 703.566895,190.417191 
	C700.627930,196.776138 700.585388,196.709976 706.387939,200.800095 
	C712.787354,205.310928 719.237610,209.760727 725.460144,214.506577 
	C728.318726,216.686798 730.237305,216.822189 733.198730,214.384338 
	C754.677734,196.703049 776.321777,179.221970 797.962830,161.738510 
	C799.530457,160.472000 800.805420,158.390396 803.336365,158.739471 
	C804.387207,160.425690 803.016724,161.265152 802.274536,162.243332 
	C785.260437,184.667191 768.291443,207.125870 751.139099,229.443634 
	C748.658203,232.671677 748.875732,234.617157 751.829163,237.292587 
	C756.363831,241.400436 760.479248,245.971207 764.826355,250.400375 
	C794.309204,234.388763 823.352966,218.615631 852.804077,202.621262 
	C853.287842,205.310455 851.574951,206.165894 850.492859,207.154739 
	C834.017273,222.210281 817.494141,237.213959 800.979309,252.226578 
	C795.556885,257.155762 790.120605,262.069733 784.702271,267.003448 
	C783.005249,268.548706 781.701294,270.079102 783.567810,272.513031 
	C789.032776,279.638977 794.382263,286.853485 799.780029,294.037537 
	C828.432678,278.506134 856.693420,262.547394 886.155457,248.561462 
	C862.053833,270.734314 839.101562,294.045380 813.322693,315.087921 
	C820.234497,329.121796 828.452332,344.179047 834.681641,360.181366 
	C838.367065,369.648987 841.712891,379.229950 844.563599,388.970245 
	C845.861511,393.404785 848.041321,394.373016 852.271240,392.674164 
	C877.301880,382.621368 902.384460,372.698120 927.456970,362.750000 
	C929.968201,361.753601 932.360229,360.174561 935.181824,360.334503 
	C935.725037,362.624298 934.300964,363.146362 933.259888,363.879974 
	C909.841553,380.383423 886.406555,396.863159 862.999939,413.383148 
	C857.421753,417.320129 857.469788,417.375336 854.029663,411.682098 
	C853.370667,410.591553 852.640442,409.544006 851.757690,408.192810 
	C850.519592,410.670776 851.551636,412.519775 852.016846,414.346283 
	C853.498535,420.163025 854.220093,426.137787 855.502258,431.957245 
	C856.729370,437.527344 853.832092,439.192963 849.885742,440.613037 
	C843.539551,442.896729 840.248291,440.463654 839.155701,433.825470 
	C836.121948,415.393585 831.292297,397.408539 825.188232,379.746185 
	C812.990479,344.451630 795.165710,312.198517 772.130920,282.920654 
	C749.206848,253.783417 722.286011,228.875717 691.100952,208.622910 
	C654.430786,184.807938 614.886658,167.661377 572.374634,157.673218 
	C539.996521,150.066040 507.061768,146.496704 473.764343,147.397171 
	C429.250458,148.600967 385.950958,156.563507 344.742310,173.602493 
	C297.094910,193.303787 255.904785,222.273239 221.912537,261.427277 
	C191.515106,296.440643 170.035217,336.213226 155.461868,380.022644 
	C150.723511,394.266754 146.878937,408.729980 143.361267,423.289490 
	C142.390442,427.307739 140.422913,428.108002 136.921722,427.003418 
	C136.127579,426.752869 135.341888,426.397461 134.527512,426.302094 
	C129.810760,425.749908 127.320587,423.762024 129.639618,418.791107 
	C99.413109,405.889893 69.411102,393.084503 39.409084,380.279114 
	C39.595516,379.730621 39.781948,379.182129 39.968380,378.633667 
	C43.679680,377.595947 47.211636,379.538452 50.730499,380.079620 
	C75.891487,383.949097 100.999222,388.164551 126.126633,392.253113 
	C127.931808,392.546814 129.781540,392.593597 131.570419,392.954285 
	C134.341614,393.513062 135.943909,392.601196 136.785095,389.813293 
	C138.997498,382.480804 141.317505,375.179108 143.718765,367.906128 
	C144.648056,365.091492 143.217773,364.008759 140.964233,363.048279 
	C129.475388,358.151672 118.018585,353.179993 106.546974,348.242950 
	C91.554787,341.790741 76.547989,335.372192 61.580418,328.863464 
	C59.845043,328.108856 57.667889,327.788574 56.398880,324.461670 
	C89.284325,329.954010 121.509590,335.336090 154.460876,340.839417 
	C158.492950,332.268524 162.952652,323.007050 167.190033,313.644928 
	C168.421326,310.924500 165.833771,309.840332 164.093155,308.711304 
	C154.590027,302.547119 145.037048,296.459839 135.507339,290.336548 
	C122.053772,281.692017 108.581520,273.076111 95.175987,264.357635 
	C92.591354,262.676697 89.328110,262.131378 86.767838,259.406982 
	C89.242737,258.125854 91.256706,258.814819 93.224411,259.484314 
	C120.183289,268.657013 147.141296,277.832306 174.080734,287.061798 
	C176.269821,287.811768 178.321625,288.962372 180.962479,290.166321 
	C187.943985,281.413635 193.083023,271.035828 201.604340,262.497803 
	C178.112839,240.411011 154.915146,218.600494 131.717468,196.789963 
	C131.961609,196.354752 132.205765,195.919525 132.449905,195.484314 
	C161.131744,210.768219 189.223343,227.150345 217.877701,242.991531 
	C224.998444,235.192657 232.647491,227.825241 240.979218,220.107300 
	C221.093262,194.329483 201.339798,168.723434 181.499832,143.005249 
	C186.061951,143.347565 256.158875,199.247238 259.504639,205.299789 
	C283.900299,184.229050 312.852722,171.106842 341.671814,157.843124 
	C328.019012,127.857742 314.484436,98.132019 300.943390,68.392105 
	C302.956085,67.443954 303.473541,68.821663 304.116119,69.636650 
	C322.167664,92.531242 340.192627,115.446815 358.211365,138.367279 
	C359.033783,139.413467 359.761993,140.534088 360.526520,141.625336 
	C362.540253,144.499451 362.398499,146.721802 358.889038,148.399719 
	C355.614197,149.965485 352.504272,151.876175 349.670105,154.633469 
	C356.482635,152.606659 363.295135,150.579865 370.489502,148.424225 
z"/>
<path fill="#FFFFFF" opacity="1.000000" stroke="none" 
	d="
M455.930817,685.122192 
	C408.457397,654.502502 358.347198,630.383057 304.287262,614.905029 
	C274.883179,606.486267 244.790085,601.452576 214.245804,600.617188 
	C189.869705,599.950439 165.815781,603.567749 142.251556,610.245911 
	C110.801163,619.158936 82.815712,634.361511 58.019440,655.574524 
	C56.789368,656.626892 55.618008,657.905090 53.822258,658.023621 
	C52.360287,657.365601 52.750664,656.057739 52.749321,654.971863 
	C52.733650,642.307373 52.752625,629.642822 52.764366,616.978333 
	C52.766712,614.447876 52.854309,612.180847 55.543713,610.570496 
	C85.012535,592.925903 115.907028,578.738525 149.583084,571.119751 
	C182.938568,563.573547 216.503372,562.695862 250.318054,567.432739 
	C302.674835,574.766968 350.760712,594.219604 397.154266,618.648926 
	C427.229980,634.485718 456.586548,651.564209 485.546356,669.331543 
	C489.491760,671.752014 492.779083,671.619080 496.645142,669.481140 
	C516.905029,658.276855 537.333496,647.374329 557.511292,636.025452 
	C577.474243,624.797424 598.409363,615.869568 619.988159,608.336853 
	C652.172363,597.102234 685.201782,589.433655 719.098999,586.007690 
	C759.229553,581.951660 799.179626,583.228821 838.890930,591.099792 
	C874.109070,598.080261 907.380493,610.449097 939.664368,625.813171 
	C942.226379,627.032410 943.857971,628.506836 941.879578,631.588806 
	C934.682007,642.800720 927.487610,654.016296 920.458130,665.333679 
	C918.381226,668.677429 916.552795,668.873657 913.255554,666.740906 
	C876.951599,643.258118 836.960571,629.763794 794.301025,624.250427 
	C733.678650,616.415527 673.917908,620.952820 615.540588,639.392822 
	C575.196289,652.136780 537.762939,670.779480 504.768860,697.673645 
	C501.672943,700.197266 498.470673,702.606567 495.532013,705.302490 
	C492.302216,708.265564 489.653259,708.318604 485.927246,705.609558 
	C476.235016,698.563110 466.159119,692.044373 455.930817,685.122192 
z"/>
<path fill="#FFFFFF" opacity="1.000000" stroke="none" 
	d="
M705.076904,311.684509 
	C733.914001,314.195251 753.300720,344.865845 740.984680,371.727356 
	C733.044617,389.044647 714.213013,399.391876 693.737854,397.241058 
	C676.015259,395.379395 659.467407,379.879517 656.054077,361.943634 
	C651.168457,336.271301 673.255920,310.680511 699.641174,311.449371 
	C701.306030,311.497864 702.969482,311.597687 705.076904,311.684509 
z"/>
<path fill="#FFFFFF" opacity="1.000000" stroke="none" 
	d="
M341.876709,351.291870 
	C328.300629,353.164215 316.449951,350.416656 305.787018,342.154541 
	C281.306091,323.185516 285.478973,284.246674 313.592896,271.145630 
	C339.311951,259.160645 367.498322,270.454132 376.640747,297.043304 
	C382.467133,313.988312 374.261902,335.393402 357.585602,345.309601 
	C352.821167,348.142609 347.766205,350.213837 341.876709,351.291870 
z"/>
<path fill="#FFFFFF" opacity="1.000000" stroke="none" 
	d="
M870.862793,346.882599 
	C862.750977,353.286987 854.822632,359.353485 847.114380,365.687866 
	C844.585754,367.765747 843.377014,367.505981 841.808289,364.746033 
	C839.103333,359.987152 836.082703,355.406647 833.161438,350.772156 
	C831.172485,347.616638 832.086853,345.802246 835.436157,344.285004 
	C859.215271,333.513031 882.920959,322.579224 906.685547,311.775024 
	C910.466187,310.056213 913.954468,307.338928 918.302490,307.224060 
	C918.616333,307.707397 918.930176,308.190765 919.244019,308.674133 
	C903.206665,321.332397 887.169250,333.990662 870.862793,346.882599 
z"/>
<path fill="#FFFFFF" opacity="1.000000" stroke="none" 
	d="
M291.746338,180.533386 
	C288.420532,182.463760 287.719116,179.705704 286.621674,178.066330 
	C272.537506,157.027420 258.524170,135.941101 244.432648,114.907135 
	C241.403458,110.385582 238.134888,106.024391 234.807800,101.352303 
	C237.399246,100.087730 238.575165,101.824684 239.775452,102.922920 
	C261.525757,122.824211 283.208679,142.799286 304.996277,162.659561 
	C308.032166,165.426880 307.792236,167.524414 304.792206,169.920944 
	C300.500061,173.349655 296.279419,176.867935 291.746338,180.533386 
z"/>
</svg>